<svg width="20" height="20" viewBox="0 0 20 20" fill="none" xmlns="http://www.w3.org/2000/svg">
<path d="M3.63636 0V0.869565H0V20H20V0.869565H16.3636V0H14.5455V0.869565H5.45455V0H3.63636ZM1.81818 2.6087H3.63636V3.47826H5.45455V2.6087H14.5455V3.47826H16.3636V2.6087H18.1818V4.34783H1.81818V2.6087ZM1.81818 6.08696H18.1818V18.2609H1.81818V6.08696ZM7.27273 7.82609V9.56522H9.09091V7.82609H7.27273ZM10.9091 7.82609V9.56522H12.7273V7.82609H10.9091ZM14.5455 7.82609V9.56522H16.3636V7.82609H14.5455ZM3.63636 11.3043V13.0435H5.45455V11.3043H3.63636ZM7.27273 11.3043V13.0435H9.09091V11.3043H7.27273ZM10.9091 11.3043V13.0435H12.7273V11.3043H10.9091ZM14.5455 11.3043V13.0435H16.3636V11.3043H14.5455ZM3.63636 14.7826V16.5217H5.45455V14.7826H3.63636ZM7.27273 14.7826V16.5217H9.09091V14.7826H7.27273ZM10.9091 14.7826V16.5217H12.7273V14.7826H10.9091Z" fill="white"/>
</svg>
