<svg width="20" height="20" viewBox="0 0 20 20" fill="none" xmlns="http://www.w3.org/2000/svg">
<path fill-rule="evenodd" clip-rule="evenodd" d="M10.6466 1.27359C10.4324 1.25778 10.2177 1.24986 10.0029 1.24984V0C10.2486 0.000119769 10.4942 0.00929151 10.7391 0.0274966L10.6466 1.27359ZM13.1515 1.83602C12.7508 1.68142 12.3393 1.55652 11.9203 1.46232L12.194 0.24247C12.6728 0.349956 13.144 0.492438 13.6015 0.669916L13.1515 1.83602ZM14.8639 2.72341C14.6852 2.60424 14.5022 2.49167 14.3152 2.38595L14.9314 1.29859C15.3587 1.54073 15.7677 1.81393 16.1551 2.11599L15.3864 3.10211C15.2169 2.96992 15.0426 2.84401 14.8639 2.72466V2.72341ZM17.1562 4.96063C16.909 4.60939 16.6362 4.27687 16.34 3.96575L17.245 3.10336C17.5825 3.45957 17.895 3.84077 18.1787 4.24072L17.1562 4.96063ZM18.0862 6.65042C18.0042 6.45227 17.9149 6.25716 17.8187 6.06549L18.9349 5.50306C19.1556 5.94186 19.3436 6.39638 19.4974 6.86289L18.3099 7.25409C18.2428 7.0502 18.1681 6.84884 18.0862 6.65042ZM18.7487 9.78378C18.7385 9.35426 18.6968 8.92606 18.6237 8.50269L19.8548 8.29021C19.9386 8.77265 19.9873 9.26259 19.9998 9.75253L18.7499 9.78378H18.7487ZM18.5849 11.706C18.6262 11.4936 18.6599 11.2823 18.6862 11.0686L19.9273 11.2223C19.8673 11.71 19.7712 12.1925 19.6398 12.6659L18.4349 12.3322C18.4924 12.126 18.5424 11.9173 18.5849 11.706ZM17.395 14.6794C17.625 14.317 17.8275 13.937 18.0024 13.5446L19.1449 14.0507C18.9449 14.5007 18.7137 14.9331 18.4512 15.3481L17.395 14.6794ZM16.1901 16.1855C16.3425 16.033 16.4888 15.8755 16.6275 15.713L17.575 16.5292C17.4145 16.7152 17.2473 16.8953 17.0738 17.0691L16.1901 16.1855Z" fill="white"/>
<path fill-rule="evenodd" clip-rule="evenodd" d="M10.0033 1.24984C8.56449 1.24995 7.14791 1.60486 5.87902 2.28314C4.61014 2.96142 3.52813 3.94213 2.72881 5.13842C1.9295 6.3347 1.43756 7.70964 1.29657 9.14143C1.15558 10.5732 1.36989 12.0177 1.92051 13.3469C2.47113 14.6761 3.34108 15.849 4.45329 16.7617C5.56551 17.6744 6.88566 18.2988 8.29682 18.5795C9.70799 18.8602 11.1666 18.7886 12.5435 18.371C13.9203 17.9534 15.173 17.2028 16.1904 16.1855L17.0741 17.0691C15.9114 18.2324 14.4796 19.091 12.9057 19.5688C11.3318 20.0466 9.66429 20.1288 8.051 19.8081C6.43772 19.4875 4.92843 18.7739 3.65687 17.7306C2.38531 16.6872 1.39074 15.3464 0.761277 13.8269C0.131814 12.3073 -0.113106 10.656 0.0482195 9.01921C0.209544 7.3824 0.772133 5.81065 1.68614 4.44322C2.60014 3.07579 3.83734 1.95489 5.28812 1.17986C6.7389 0.404818 8.35846 -0.000435861 10.0033 3.51779e-07V1.24984Z" fill="white"/>
<path fill-rule="evenodd" clip-rule="evenodd" d="M9.37789 3.74951C9.54364 3.74951 9.7026 3.81535 9.81981 3.93255C9.93701 4.04974 10.0029 4.20869 10.0029 4.37443V10.8861L14.0626 13.2058C14.2023 13.2901 14.3036 13.4257 14.3446 13.5836C14.3857 13.7416 14.3634 13.9093 14.2824 14.051C14.2014 14.1927 14.0683 14.297 13.9113 14.3418C13.7544 14.3866 13.5862 14.3683 13.4426 14.2907L9.06791 11.791C8.97226 11.7364 8.89275 11.6574 8.83743 11.5622C8.78212 11.4669 8.75297 11.3587 8.75293 11.2486V4.37443C8.75293 4.20869 8.81877 4.04974 8.93598 3.93255C9.05318 3.81535 9.21214 3.74951 9.37789 3.74951Z" fill="white"/>
</svg>
